<?xml version="1.0" encoding="utf-8"?>
<!-- Generator: Adobe Illustrator 22.1.0, SVG Export Plug-In . SVG Version: 6.00 Build 0)  -->
<svg version="1.1" id="Layer_1" xmlns="http://www.w3.org/2000/svg" xmlns:xlink="http://www.w3.org/1999/xlink" x="0px" y="0px"
	 viewBox="0 0 160 93" style="enable-background:new 0 0 160 93;" xml:space="preserve">
<style type="text/css">
	.st0{fill:#E43137;}
	.st1{fill:#3262B1;}
	.st2{fill:#F1AD17;}
	.st3{fill:#A2D84B;}
</style>
<path class="st0" d="M67.7,46.8H50.6c0.6,4.1,3.5,6.7,7.6,6.7c2.6,0,4.9-0.9,6.5-2.6l1.7,1.8c-2,2.2-4.9,3.5-8.4,3.5
	c-6.2,0-10.4-4.3-10.4-10.6c0-6.3,4.3-10.6,10.4-10.6C64.7,35,68.1,39.7,67.7,46.8 M65,44.3c-0.2-4-2.9-6.6-7-6.6
	c-4,0-6.8,2.6-7.3,6.6H65z"/>
<path class="st1" d="M89,45.7c0,6.2-4.1,10.6-10,10.6c-3.7,0-6.6-1.7-8.2-4.6v4.5h-3.1V26.6h3.1v13.1c1.6-2.9,4.4-4.7,8.1-4.7
	C84.9,35,89,39.4,89,45.7 M85.9,45.6c0-4.5-3.1-7.8-7.5-7.8c-4.4,0-7.5,3.3-7.5,7.8c0,4.6,3.1,7.8,7.5,7.8
	C82.8,53.4,85.9,50.1,85.9,45.6"/>
<path class="st2" d="M109.4,53.9c0,6.1-4.2,10-10.6,10c-3.3,0-6.1-1.1-8.6-3l1.4-2.4c2.1,1.7,4.3,2.6,7,2.7c4.6,0,7.6-2.8,7.6-7.2
	v-3.2c-1.5,2.8-4.2,4.4-7.7,4.4C92.9,55.2,89,51,89,45c0-5.9,3.9-10,9.5-10c3.6,0,6.3,1.6,7.8,4.4v-4.3h3.1V53.9z M106.3,45.2
	c0-4.4-3-7.4-7.2-7.4c-4.2,0-7.2,3.1-7.2,7.4c0,4.3,3,7.4,7.2,7.4C103.3,52.6,106.3,49.5,106.3,45.2"/>
<polygon class="st1" points="34.8,42.2 27,46.7 8.2,57.5 8.2,53.1 23.2,44.5 27,42.2 8.2,31.4 8.2,26.9 "/>
<polygon class="st2" points="27,42.2 23.2,44.5 8.2,35.9 4.3,33.6 4.3,55.4 0.5,57.5 0.5,26.9 8.2,31.4 "/>
<polygon class="st3" points="30.8,48.9 4.3,64.2 4.3,33.6 8.2,35.9 8.2,57.5 27,46.7 "/>
<polygon class="st0" points="23.2,44.5 8.2,53.1 8.2,35.9 "/>
<path class="st3" d="M51,58.9c-0.1-0.2-0.5-0.4-0.9-0.4c-0.5,0-0.8,0.2-0.8,0.5c0,0.3,0.4,0.4,0.9,0.5c0.8,0.1,1.5,0.3,1.5,1.2
	c0,0.9-0.8,1.2-1.6,1.2c-0.8,0-1.4-0.2-1.7-0.9l0.6-0.3c0.2,0.4,0.6,0.6,1.1,0.6c0.5,0,0.9-0.2,0.9-0.6c0-0.4-0.4-0.5-0.9-0.6
	c-0.8-0.1-1.5-0.3-1.5-1.2c0-0.8,0.8-1.1,1.5-1.1c0.6,0,1.2,0.2,1.5,0.8L51,58.9z"/>
<polygon class="st3" points="56.5,61.8 56.5,60.3 54.6,60.3 54.6,61.8 53.9,61.8 53.9,58 54.6,58 54.6,59.6 56.5,59.6 56.5,58 
	57.2,58 57.2,61.8 "/>
<path class="st3" d="M63.3,59.9c0,1-0.6,2-2,2c-1.3,0-2-1-2-2c0-1,0.6-2,2-2C62.6,57.9,63.3,58.9,63.3,59.9 M60.1,59.9
	c0,0.6,0.4,1.3,1.3,1.3c0.9,0,1.2-0.7,1.2-1.3c0-0.6-0.3-1.4-1.2-1.4C60.4,58.6,60.1,59.3,60.1,59.9"/>
<path class="st3" d="M67.2,60.7h-1.1v1.1h-0.7V58c0.6,0,1.2,0,1.8,0C69.1,58,69.1,60.7,67.2,60.7 M66.2,60h1.1c0.9,0,0.9-1.4,0-1.4
	h-1.1V60z"/>
<path class="st3" d="M72.6,60.7h-1.1v1.1h-0.7V58c0.6,0,1.2,0,1.8,0C74.4,58,74.4,60.7,72.6,60.7 M71.5,60h1.1c0.9,0,0.9-1.4,0-1.4
	h-1.1V60z"/>
<rect x="76.1" y="58" class="st3" width="0.7" height="3.8"/>
<polygon class="st3" points="81.6,58 82.3,58 82.3,61.8 81.9,61.8 81.9,61.8 79.9,59.2 79.9,61.8 79.2,61.8 79.2,58 79.8,58 
	81.6,60.3 "/>
<path class="st3" d="M87.5,58.9c-0.3-0.2-0.6-0.4-1-0.4c-0.8,0-1.3,0.6-1.3,1.4c0,0.6,0.4,1.3,1.3,1.3c0.3,0,0.6-0.1,0.9-0.3v-0.7
	h-1v-0.6H88v1.6c-0.4,0.5-0.9,0.7-1.5,0.7c-1.4,0-2-0.9-2-1.9c0-1.1,0.7-2.1,2-2.1c0.5,0,1,0.2,1.4,0.6L87.5,58.9z"/>
<path class="st3" d="M159.4,45.3c-0.2-6.2-3.5-10.1-9.7-10.1c-6,0-10.3,4.3-10.3,10.5c0,6.2,4.2,10.5,10.4,10.5
	c3.5,0,6.4-1.3,8.4-3.5l-1.7-1.8c-1.6,1.7-3.9,2.6-6.4,2.6c-4,0-7-2.6-7.5-6.6h17c0-0.1,0-0.1,0-0.2
	C159.4,46.2,159.4,45.7,159.4,45.3 M142.4,44.3c0.5-4,3.3-6.5,7.3-6.5c4.1,0,6.8,2.5,7,6.5H142.4z"/>
<path class="st3" d="M136.2,35.2v4.2c-1.5-2.8-4.2-4.3-7.7-4.3c-5.6,0-9.4,4.1-9.4,10c0,5.9,3.9,10.1,9.5,10.1
	c3.5,0,6.2-1.6,7.7-4.3V54c0,4.3-3,7.1-7.5,7.1c-2.8,0-4.9-0.9-7-2.6l-1.4,2.4c2.5,1.9,5.3,3,8.5,3c6.3,0,10.5-3.8,10.5-9.9V35.2
	H136.2z M129.1,52.5c-4.2,0-7.1-3.1-7.2-7.4c0-4.3,3-7.4,7.2-7.4c4.1,0,7.1,3,7.1,7.4C136.2,49.5,133.3,52.5,129.1,52.5"/>
<path class="st3" d="M115.4,50.9c0.9,0,1.5,0.7,1.5,1.5c0,0.9-0.7,1.5-1.5,1.5c-0.9,0-1.5-0.7-1.5-1.5
	C113.9,51.6,114.6,50.9,115.4,50.9"/>
</svg>
